<?xml version="1.0" encoding="UTF-8"?>
<svg width="160px" height="160px" viewBox="0 0 80 80" version="1.1" xmlns="http://www.w3.org/2000/svg" xmlns:xlink="http://www.w3.org/1999/xlink">
    <!-- Generator: Sketch 52.2 (67145) - http://www.bohemiancoding.com/sketch -->
    <title>Group</title>
    <desc>Created with Sketch.</desc>
    <defs>
        <linearGradient x1="-3.65753174%" y1="32.6858521%" x2="126.141357%" y2="104.450989%" id="linearGradient-1">
            <stop stop-color="#FF964D" offset="0%"></stop>
            <stop stop-color="#FF3F00" offset="100%"></stop>
        </linearGradient>
    </defs>
    <g id="Page-1" stroke="none" stroke-width="1" fill="none" fill-rule="evenodd">
        <g id="扫二维码登录" transform="translate(-150.000000, -65.000000)">
            <g id="Group" transform="translate(150.000000, 65.000000)">
                <path d="M72.1265979,63.2353111 L74.8386536,74.9322826 L63.2878378,72.0884106 C56.7105976,76.8782829 48.6113635,79.7042017 39.8521008,79.7042017 C17.8423933,79.7042017 0,61.8618084 0,39.8521008 C0,17.8423933 17.8423933,0 39.8521008,0 C61.8618084,0 79.7042017,17.8423933 79.7042017,39.8521008 C79.7042017,48.5880603 76.8932991,56.6674984 72.1265979,63.2353111 Z" id="Combined-Shape-Copy" fill="url(#linearGradient-1)"></path>
                <path d="M46.1060989,32.0244461 L46.1060989,29.4093838 C46.1060989,26.2969772 43.5829948,23.7738732 40.4705882,23.7738732 C37.3581816,23.7738732 34.8350776,26.2969772 34.8350776,29.4093838 L34.8350776,32.0244461 L29.661494,32.0244461 L29.661494,29.6326236 C29.661494,23.6629257 34.5008904,18.8235294 40.4705882,18.8235294 C46.4402861,18.8235294 51.2796824,23.6629257 51.2796824,29.6326236 L51.2796824,32.0244461 L46.1060989,32.0244461 Z M39.2695778,46.0351277 L39.2695778,51.9068085 C39.2695778,52.6721543 39.8900132,53.2925898 40.6553591,53.2925898 C41.420705,53.2925898 42.0411404,52.6721543 42.0411404,51.9068085 L42.0411404,46.0351277 C43.2385275,45.5075739 44.0736196,44.3173266 44.0736196,42.9335371 C44.0736196,41.0602412 42.5432123,39.5416348 40.6553591,39.5416348 C38.7675059,39.5416348 37.2370985,41.0602412 37.2370985,42.9335371 C37.2370985,44.3173266 38.0721906,45.5075739 39.2695778,46.0351277 Z M25.4117647,34.2245989 L55.5294118,34.2245989 L55.5294118,46.1176471 C55.5294118,54.4344056 48.7873468,61.1764706 40.4705882,61.1764706 C32.1538296,61.1764706 25.4117647,54.4344056 25.4117647,46.1176471 L25.4117647,34.2245989 Z" id="Combined-Shape" fill="#FFFFFF"></path>
            </g>
        </g>
    </g>
</svg>